<svg id="Iconly_Light-Outline_Setting" data-name="Iconly/Light-Outline/Setting" xmlns="http://www.w3.org/2000/svg" width="15.689" height="16.858" viewBox="0 0 15.689 16.858">
  <g id="Setting">
    <path id="Combined-Shape" d="M8.353,1a2.164,2.164,0,0,1,2.167,2.228.869.869,0,0,0,.123.415.938.938,0,0,0,1.288.338,2.173,2.173,0,0,1,2.961.795l.507.878a.692.692,0,0,1,.034.07,2.175,2.175,0,0,1-.822,2.884.929.929,0,0,0-.345.343.955.955,0,0,0-.1.718.929.929,0,0,0,.439.572A2.159,2.159,0,0,1,15.4,13.2l-.54.9a2.168,2.168,0,0,1-2.951.78.969.969,0,0,0-.454-.126h0a.941.941,0,0,0-.652.275.93.93,0,0,0-.274.668,2.172,2.172,0,0,1-2.167,2.162H7.334a2.169,2.169,0,0,1-2.167-2.167.876.876,0,0,0-.123-.433.931.931,0,0,0-1.282-.351A2.167,2.167,0,0,1,.8,14.074L.289,13.2a2.162,2.162,0,0,1,.789-2.949.946.946,0,0,0,0-1.639,2.171,2.171,0,0,1-.79-2.956L.84,4.749a2.165,2.165,0,0,1,2.947-.786.89.89,0,0,0,.449.128.949.949,0,0,0,.939-.932A2.157,2.157,0,0,1,7.334,1Zm0,1.22H7.334a.936.936,0,0,0-.939.943A2.178,2.178,0,0,1,4.228,5.311a2.1,2.1,0,0,1-1.057-.295.947.947,0,0,0-1.282.355l-.551.905A.945.945,0,0,0,1.69,7.554a2.167,2.167,0,0,1,0,3.752.94.94,0,0,0-.343,1.281l.513.885a.949.949,0,0,0,1.3.377,2.158,2.158,0,0,1,1.631-.216A2.171,2.171,0,0,1,6.1,14.644a2.085,2.085,0,0,1,.289,1.041.949.949,0,0,0,.947.953H8.353A.948.948,0,0,0,9.3,15.7a2.158,2.158,0,0,1,2.17-2.163,2.216,2.216,0,0,1,1.043.288.952.952,0,0,0,1.294-.343l.54-.9A.94.94,0,0,0,14,11.3a2.145,2.145,0,0,1-1.01-1.316,2.173,2.173,0,0,1,.22-1.643A2.147,2.147,0,0,1,14,7.552a.949.949,0,0,0,.339-1.284.454.454,0,0,1-.028-.056l-.477-.827a.948.948,0,0,0-1.29-.349,2.159,2.159,0,0,1-2.952-.773A2.078,2.078,0,0,1,9.3,3.217a.971.971,0,0,0-.268-.711A.95.95,0,0,0,8.353,2.221ZM7.847,6.674A2.755,2.755,0,1,1,5.092,9.43,2.759,2.759,0,0,1,7.847,6.674Zm0,1.22A1.534,1.534,0,1,0,9.381,9.43,1.537,1.537,0,0,0,7.847,7.895Z" transform="translate(0 -1)" fill="#7bc3c1" fill-rule="evenodd"/>
  </g>
</svg>
