<svg id="Iconly_Light-Outline_Logout" data-name="Iconly/Light-Outline/Logout" xmlns="http://www.w3.org/2000/svg" width="18.267" height="17.79" viewBox="0 0 18.267 17.79">
  <g id="Logout">
    <path id="Combined-Shape" d="M8.28,0a3.95,3.95,0,0,1,3.946,3.946v.829a.667.667,0,0,1-1.334,0V3.946A2.614,2.614,0,0,0,8.28,1.334H3.943A2.613,2.613,0,0,0,1.335,3.946v9.9a2.612,2.612,0,0,0,2.609,2.611H8.289a2.6,2.6,0,0,0,2.6-2.6v-.839a.667.667,0,1,1,1.334,0v.839A3.94,3.94,0,0,1,8.289,17.79H3.943A3.948,3.948,0,0,1,0,13.845v-9.9A3.949,3.949,0,0,1,3.943,0Zm7.187,5.83,2.6,2.593a.659.659,0,0,1,.063.072l-.063-.072a.66.66,0,0,1,.084.1c.011.016.021.033.031.051s.015.028.022.042l.016.039c.007.017.013.034.018.052s.007.028.011.042.007.034.01.051,0,.023,0,.035a.592.592,0,0,1,0,.06l0,.055,0,.035v0l.007-.095a.665.665,0,0,1-.016.146c0,.014-.007.028-.011.042s-.011.035-.018.052l-.016.038c-.006.015-.014.029-.021.043s-.02.034-.031.05l-.02.029a.707.707,0,0,1-.069.078l-2.6,2.588a.667.667,0,0,1-.941-.945l1.459-1.454H6.89a.667.667,0,1,1,0-1.334h9.1l-1.46-1.453a.667.667,0,1,1,.941-.945Z" transform="translate(0)" fill="#73bfbd" fill-rule="evenodd"/>
  </g>
</svg>
