<svg id="Group_38731" data-name="Group 38731" xmlns="http://www.w3.org/2000/svg" width="16" height="20" viewBox="0 0 16 20">
  <path id="Rectangle_107" data-name="Rectangle 107" d="M3,1.5A1.5,1.5,0,0,0,1.5,3V17A1.5,1.5,0,0,0,3,18.5H13A1.5,1.5,0,0,0,14.5,17V3A1.5,1.5,0,0,0,13,1.5H3M3,0H13a3,3,0,0,1,3,3V17a3,3,0,0,1-3,3H3a3,3,0,0,1-3-3V3A3,3,0,0,1,3,0Z" fill="#73bfbd"/>
  <path id="Line_7" data-name="Line 7" d="M8.1.75H0A.75.75,0,0,1-.75,0,.75.75,0,0,1,0-.75H8.1a.75.75,0,0,1,.75.75A.75.75,0,0,1,8.1.75Z" transform="translate(3.95 6)" fill="#73bfbd"/>
  <path id="Line_8" data-name="Line 8" d="M6.5.75H0A.75.75,0,0,1-.75,0,.75.75,0,0,1,0-.75H6.5A.75.75,0,0,1,7.25,0,.75.75,0,0,1,6.5.75Z" transform="translate(3.95 10)" fill="#73bfbd"/>
  <path id="Line_9" data-name="Line 9" d="M4.5.75H0A.75.75,0,0,1-.75,0,.75.75,0,0,1,0-.75H4.5A.75.75,0,0,1,5.25,0,.75.75,0,0,1,4.5.75Z" transform="translate(3.95 14)" fill="#73bfbd"/>
</svg>
