<svg id="Group_40340" data-name="Group 40340" xmlns="http://www.w3.org/2000/svg" xmlns:xlink="http://www.w3.org/1999/xlink" width="15.135" height="19.463" viewBox="0 0 15.135 19.463">
  <defs>
    <clipPath id="clip-path">
      <rect id="Rectangle_9713" data-name="Rectangle 9713" width="15.136" height="19.463" fill="#73bfbd"/>
    </clipPath>
  </defs>
  <g id="Group_40339" data-name="Group 40339" clip-path="url(#clip-path)">
    <path id="Path_57411" data-name="Path 57411" d="M9.375,19.463H.913a1.64,1.64,0,0,0-.2-.1.95.95,0,0,1-.695-.988c0-.128,0-.256,0-.384,0-5.505.01-11.01-.012-16.515C0,.746.17.221.913,0H14.222c.743.222.935.746.912,1.477-.041,1.318-.012,2.639-.012,3.959,0,2.575,0,5.151,0,7.726a.81.81,0,0,1-.386.814,1.492,1.492,0,0,0-.307.288q-.943.986-1.883,1.975c-.642.679-1.271,1.372-1.923,2.042-.4.411-.834.79-1.253,1.183M1.046,9.747q0,4,0,8,0,.192.009.384a.244.244,0,0,0,.238.253,2.266,2.266,0,0,0,.268.014q3.346,0,6.692,0c.508,0,.53-.026.531-.556q0-1.981,0-3.961c0-.992.09-1.083,1.065-1.084,1.269,0,2.538,0,3.807,0,.379,0,.418-.048.432-.419,0-.051,0-.1,0-.154q0-5.288,0-10.576c0-.548-.022-.568-.555-.574H1.652c-.594,0-.605.012-.606.6q0,4.038,0,8.076m8.826,7.736a3.065,3.065,0,0,0,.287-.222q1.469-1.541,2.933-3.088a2.312,2.312,0,0,0,.191-.287,3.6,3.6,0,0,0-.387-.048c-.87,0-1.74-.005-2.61,0-.413,0-.46.05-.462.47q-.006,1.362,0,2.725c0,.121.024.243.047.452" transform="translate(-0.001)" fill="#73bfbd"/>
    <path id="Path_57412" data-name="Path 57412" d="M78.863,44.083l.521.587a2.471,2.471,0,0,0,.2-.448.315.315,0,0,1,.406-.288,2.706,2.706,0,0,0,.343,0,1.317,1.317,0,0,1-.155.992.494.494,0,0,0,.115.729,1.389,1.389,0,0,1,.184.234,1.993,1.993,0,0,1-.979-.059.622.622,0,0,0-.392.024,1.936,1.936,0,0,1-1.459-.007.986.986,0,0,1-.615-.975.826.826,0,0,1,.264-.616c.119-.114.239-.226.371-.351-.064-.139-.128-.262-.178-.39a1.089,1.089,0,0,1,.188-1.248,1.164,1.164,0,0,1,1.284-.249A.973.973,0,0,1,79.3,43.59c-.123.146-.252.287-.434.494m-.117,1.046a1.145,1.145,0,0,0-.473-.573c-.037-.03-.175,0-.218.05a.365.365,0,0,0,.114.551.5.5,0,0,0,.576-.028m.069-2.139a.29.29,0,0,0-.3-.284.333.333,0,0,0-.335.343c.006.183.143.377.265.374a.5.5,0,0,0,.37-.434" transform="translate(-71.108 -38.709)" fill="#73bfbd"/>
    <path id="Path_57413" data-name="Path 57413" d="M43.663,129.087q-2.055,0-4.109,0c-.385,0-.419-.036-.426-.37-.007-.37.037-.424.411-.425q2.093-.005,4.186,0,2.035,0,4.071,0a.422.422,0,0,1,.415.655.325.325,0,0,1-.209.131,1.69,1.69,0,0,1-.344.011H43.663" transform="translate(-36.117 -118.419)" fill="#73bfbd"/>
    <path id="Path_57414" data-name="Path 57414" d="M129.571,42.174c-.365,0-.7,0-1.028,0-.432.008-.628.146-.675.572a5.622,5.622,0,0,0,0,1.186c.042.412.25.57.676.586.33.013.661,0,1.051,0a2.2,2.2,0,0,1-.011.523.38.38,0,0,1-.25.237,4.209,4.209,0,0,1-1.6.022.964.964,0,0,1-.668-.589,1.853,1.853,0,0,1-.159-.552,5.52,5.52,0,0,1,.054-1.873,1.147,1.147,0,0,1,1.265-.992,5.891,5.891,0,0,1,.954.072c.4.063.432.124.423.538,0,.075-.016.15-.029.266" transform="translate(-117.092 -38.122)" fill="#73bfbd"/>
    <path id="Path_57415" data-name="Path 57415" d="M34.631,41.312c.4,0,.794-.006,1.19,0,.287.006.322.051.335.344,0,.089,0,.179,0,.269a.238.238,0,0,1-.264.26l-.153,0c-.582.018-.583.018-.584.615,0,.7,0,1.408,0,2.112,0,.4-.032.428-.444.431h-.077c-.486,0-.5-.018-.5-.492,0-.717,0-1.433,0-2.15,0-.482-.025-.5-.49-.515h-.077c-.409-.011-.437-.04-.438-.441s.028-.434.436-.438c.358,0,.717,0,1.075,0h0" transform="translate(-30.572 -38.132)" fill="#73bfbd"/>
    <path id="Path_57416" data-name="Path 57416" d="M40.873,157.227c.575,0,1.15,0,1.725,0,.319,0,.371.06.378.344.008.312-.057.4-.368.4q-1.725.01-3.449,0a.386.386,0,0,1-.336-.609.444.444,0,0,1,.326-.129c.575-.013,1.15-.006,1.724-.006" transform="translate(-35.772 -145.13)" fill="#73bfbd"/>
    <path id="Path_57417" data-name="Path 57417" d="M40.65,186.9c-.384,0-.768.007-1.151,0-.3-.007-.353-.07-.353-.369s.052-.363.355-.366q1.132-.011,2.264,0c.289,0,.338.076.332.387-.006.283-.05.339-.334.346-.371.01-.742,0-1.113,0" transform="translate(-36.134 -171.838)" fill="#73bfbd"/>
  </g>
</svg>
