<svg id="Group_40337" data-name="Group 40337" xmlns="http://www.w3.org/2000/svg" width="19.833" height="19.049" viewBox="0 0 19.833 19.049">
  <path id="Path_51164" data-name="Path 51164" d="M1112.225-671.939c.086.286-.049.36-.261.431-1.47.485-2.939.974-4.4,1.488a1.26,1.26,0,0,1-1.145-.137,2.756,2.756,0,0,1-1.249-1.7c-.277-1.028-.55-2.056-.833-3.115.206-.149.466-.32.708-.513.621-.5,1.224-1.019,1.854-1.5a2.651,2.651,0,0,1,2.079-.568,1.128,1.128,0,0,1,.784.48c.948,1.278,1.926,2.534,2.893,3.8.048.063.1.128.149.2a2.856,2.856,0,0,0-.208.269.194.194,0,0,1-.276.091c-.408-.143-.823-.271-1.237-.4-.273-.084-.488.008-.554.223-.071.231.037.417.313.51C1111.307-672.234,1111.772-672.086,1112.225-671.939Z" transform="translate(-1104.337 682.194)" fill="#73bfbd"/>
  <path id="Path_51165" data-name="Path 51165" d="M1320.936-532.419c-1.079.056-2.169.12-3.259.167a2.668,2.668,0,0,1-2.073-.8.958.958,0,0,1-.3-.73c.012-1.615,0-3.23.005-4.846,0-.113-.035-.232.134-.289s.209.066.276.154c.235.316.463.636.7.953.194.261.419.329.61.19.208-.151.212-.372.009-.654-.271-.378-.545-.754-.821-1.135a2.165,2.165,0,0,0,.189-.286c.067-.145.151-.144.288-.1,1.465.5,2.923,1.017,4.4,1.463a1.59,1.59,0,0,1,1.15,1.511,2.984,2.984,0,0,1-.221,1.553C1321.644-534.312,1321.292-533.35,1320.936-532.419Z" transform="translate(-1304.796 551.254)" fill="#73bfbd"/>
  <path id="Path_51166" data-name="Path 51166" d="M1155.557-530.37c-.409-1.106-.85-2.248-1.248-3.4a2.341,2.341,0,0,1,.093-1.582,1.187,1.187,0,0,1,.815-.8c1.513-.481,3.012-1.006,4.516-1.514.115-.039.21-.086.3.065s.128.225.011.372c-.26.327-.5.671-.742,1.01a.4.4,0,0,0,.05.614.408.408,0,0,0,.58-.155c.252-.343.518-.678.745-1.037.14-.222.281-.075.412-.043a.258.258,0,0,1,.126.2c.007,1.672.017,3.344-.006,5.016a1.024,1.024,0,0,1-.3.6,2.848,2.848,0,0,1-2.446.808C1157.5-530.285,1156.526-530.319,1155.557-530.37Z" transform="translate(-1151.799 549.247)" fill="#73bfbd"/>
  <path id="Path_51167" data-name="Path 51167" d="M1343.125-676.3c-.282,1.057-.555,2.085-.832,3.112a2.785,2.785,0,0,1-1.264,1.721,1.114,1.114,0,0,1-1.022.114c-1.536-.538-3.082-1.045-4.625-1.561-.129-.043-.253-.075-.2-.27.457-.151.924-.292,1.38-.464a.578.578,0,0,0,.317-.287.371.371,0,0,0-.495-.459c-.422.126-.841.266-1.257.41a.236.236,0,0,1-.323-.089c-.1-.136-.064-.218.021-.335.974-1.337,1.953-2.672,2.909-4.022a1.094,1.094,0,0,1,.871-.471,2.8,2.8,0,0,1,2.075.672q.92.76,1.851,1.506C1342.726-676.561,1342.945-676.425,1343.125-676.3Z" transform="translate(-1323.292 683.443)" fill="#73bfbd"/>
  <path id="Path_51168" data-name="Path 51168" d="M1227.977-770.257c.946.613,1.876,1.2,2.788,1.813a2.588,2.588,0,0,1,1.2,1.939,1.04,1.04,0,0,1-.218.761c-.964,1.306-1.912,2.624-2.863,3.938-.078.107-.133.2-.307.142s-.163-.164-.163-.295c0-.426.016-.853-.016-1.277a.562.562,0,0,0-.238-.372.386.386,0,0,0-.366.047.637.637,0,0,0-.159.4c-.019.393,0,.788-.009,1.181a.966.966,0,0,1-.1.285.994.994,0,0,1-.235-.167c-.971-1.261-1.917-2.541-2.914-3.781a1.3,1.3,0,0,1-.213-1.32,2.784,2.784,0,0,1,1.181-1.533q1.189-.78,2.377-1.561A3.119,3.119,0,0,0,1227.977-770.257Z" transform="translate(-1218.132 770.257)" fill="#73bfbd"/>
  <path id="Path_51169" data-name="Path 51169" d="M1286.128-577.477a1.037,1.037,0,0,1-1.073,1.054,1.045,1.045,0,0,1-1.026-1.079,1.061,1.061,0,0,1,1.062-1.027A1.065,1.065,0,0,1,1286.128-577.477Z" transform="translate(-1275.188 587.963)" fill="#73bfbd"/>
</svg>
