<svg xmlns="http://www.w3.org/2000/svg" width="19.758" height="19.514" viewBox="0 0 19.758 19.514">
  <g id="Group_43" data-name="Group 43" transform="translate(0 0)">
    <g id="Group_42" data-name="Group 42">
      <path id="Rectangle_40_Stroke_" data-name="Rectangle 40 (Stroke)" d="M136.926,744.2l1.069,6.944a2.891,2.891,0,0,0,2.857,2.451h9.494a2.892,2.892,0,0,0,2.858-2.451l.555-3.614a2.89,2.89,0,0,0-2.857-3.33Zm1.685,1.445.812,5.278a1.446,1.446,0,0,0,1.429,1.226h9.494a1.444,1.444,0,0,0,1.429-1.226l.556-3.614a1.444,1.444,0,0,0-1.429-1.665Z" transform="translate(-134.035 -742.026)" fill="#73bfbd" fill-rule="evenodd"/>
      <path id="Vector_5_Stroke_" data-name="Vector 5 (Stroke)" d="M137.359,754.143l1.14-2.234,1.287.658-1.14,2.234a.723.723,0,0,0,.643,1.051h13.768a.493.493,0,0,1,.494.494v.457a.493.493,0,0,1-.494.494H139.289A2.168,2.168,0,0,1,137.359,754.143Z" transform="translate(-134.038 -742.12)" fill="#73bfbd" fill-rule="evenodd"/>
      <path id="Vector_6_Stroke_" data-name="Vector 6 (Stroke)" d="M135.937,743.445h-1.443a.494.494,0,0,1-.494-.494v-.457a.494.494,0,0,1,.494-.494h1.443a2.169,2.169,0,0,1,1.994,1.314l.708,1.654-1.329.569-.708-1.653A.723.723,0,0,0,135.937,743.445Z" transform="translate(-134 -742)" fill="#73bfbd" fill-rule="evenodd"/>
      <path id="Ellipse_5" data-name="Ellipse 5" d="M142.735,759.9a1.807,1.807,0,1,1-1.807-1.807A1.806,1.806,0,0,1,142.735,759.9Z" transform="translate(-134.062 -742.194)" fill="#73bfbd"/>
      <path id="Ellipse_6" data-name="Ellipse 6" d="M151.514,759.9a1.807,1.807,0,1,1-1.807-1.807A1.806,1.806,0,0,1,151.514,759.9Z" transform="translate(-134.168 -742.194)" fill="#73bfbd"/>
    </g>
  </g>
</svg>
